HIERARCHY
ROOT Hips
{
 OFFSET 0.000000 0.000000 0.000000
 CHANNELS 6 Xposition Yposition Zposition Yrotation Xrotation Zrotation
 JOINT Chest
 {
  OFFSET 0.000000 10.295748 -1.143972
  CHANNELS 3 Yrotation Xrotation Zrotation
  JOINT Chest2
  {
   OFFSET 0.000000 11.463406 0.000000
   CHANNELS 3 Yrotation Xrotation Zrotation
   JOINT Chest3
   {
    OFFSET 0.000000 10.465446 0.003843
    CHANNELS 3 Yrotation Xrotation Zrotation
    JOINT Chest4
    {
     OFFSET 0.000000 10.453763 0.003847
     CHANNELS 3 Yrotation Xrotation Zrotation
     JOINT Neck
     {
      OFFSET 0.000000 14.640069 0.000000
      CHANNELS 3 Yrotation Xrotation Zrotation
      JOINT Head
      {
       OFFSET 0.000000 9.731475 -0.008265
       CHANNELS 3 Yrotation Xrotation Zrotation
       End Site
       {
        OFFSET 0.000000 18.098145 -0.001112
       }
      }
     }
     JOINT RightCollar
     {
      OFFSET -3.176695 8.204215 0.000000
      CHANNELS 3 Yrotation Xrotation Zrotation
      JOINT RightShoulder
      {
       OFFSET -14.761309 0.000000 0.000000
       CHANNELS 3 Yrotation Xrotation Zrotation
       JOINT RightElbow
       {
        OFFSET -31.560813 0.000000 0.000000
        CHANNELS 3 Yrotation Xrotation Zrotation
        JOINT RightWrist
        {
         OFFSET -25.806933 0.000000 0.000000
         CHANNELS 3 Yrotation Xrotation Zrotation
         End Site
         {
          OFFSET -19.288868 0.000000 0.000000
         }
        }
       }
      }
     }
     JOINT LeftCollar
     {
      OFFSET 3.176695 8.204215 0.000000
      CHANNELS 3 Yrotation Xrotation Zrotation
      JOINT LeftShoulder
      {
       OFFSET 14.761309 0.000000 0.000000
       CHANNELS 3 Yrotation Xrotation Zrotation
       JOINT LeftElbow
       {
        OFFSET 31.560813 0.000000 0.000000
        CHANNELS 3 Yrotation Xrotation Zrotation
        JOINT LeftWrist
        {
         OFFSET 25.806933 0.000000 0.000000
         CHANNELS 3 Yrotation Xrotation Zrotation
         End Site
         {
          OFFSET 19.288868 0.000000 0.000000
         }
        }
       }
      }
     }
    }
   }
  }
 }
 JOINT RightHip
 {
  OFFSET -8.449583 -0.008248 0.000916
  CHANNELS 3 Yrotation Xrotation Zrotation
  JOINT RightKnee
  {
   OFFSET 0.000000 -43.941227 0.000909
   CHANNELS 3 Yrotation Xrotation Zrotation
   JOINT RightAnkle
   {
    OFFSET 0.000000 -42.928516 0.001532
    CHANNELS 3 Yrotation Xrotation Zrotation
    JOINT RightToe
    {
     OFFSET 0.000000 -6.852267 15.473535
     CHANNELS 3 Yrotation Xrotation Zrotation
     End Site
     {
      OFFSET 0.000000 -1.580106 6.738334
     }
    }
   }
  }
 }
 JOINT LeftHip
 {
  OFFSET 8.449583 -0.010566 0.001174
  CHANNELS 3 Yrotation Xrotation Zrotation
  JOINT LeftKnee
  {
   OFFSET 0.000000 -43.941227 0.000909
   CHANNELS 3 Yrotation Xrotation Zrotation
   JOINT LeftAnkle
   {
    OFFSET 0.000000 -42.928516 0.001532
    CHANNELS 3 Yrotation Xrotation Zrotation
    JOINT LeftToe
    {
     OFFSET 0.000000 -6.852267 15.473535
     CHANNELS 3 Yrotation Xrotation Zrotation
     End Site
     {
      OFFSET 0.000000 -1.580106 6.738334
     }
    }
   }
  }
 }
}
MOTION
Frames: 11
Frame Time: 0.016667
0.417437 94.990930 139.656476 16.792331 -1.983950 0.149680 -1.112059 3.791964 -0.874997 -0.448184 -4.138807 -0.380404 -0.447165 1.681447 -0.425919 -0.366760 7.097993 -0.320595 0.591182 10.868866 0.701908 0.827090 -15.845244 1.089997 -2.299805 -1.200905 9.392992 8.388630 -10.851988 70.349601 -1.368389 16.185928 -3.499022 6.732091 10.979576 2.609833 4.775426 -3.368733 -7.619877 3.326470 -9.392665 -75.352896 -0.405584 21.131946 7.295533 -5.350378 17.546227 3.939413 1.502139 5.905273 -4.052723 1.595208 2.040109 1.701874 0.201341 -5.338807 2.381641 0.000000 -1.261633 -0.000000 1.606526 5.265389 4.049548 -2.813463 5.833362 -0.877940 -1.322344 -9.848719 -6.519528 -0.000000 0.000000 -0.000000
0.425301 94.990317 139.662018 16.787789 -1.979149 0.150333 -1.115861 3.790056 -0.879151 -0.449657 -4.139637 -0.382227 -0.448634 1.680617 -0.427892 -0.368008 7.097371 -0.322082 0.589227 10.870905 0.700987 0.823737 -15.841452 1.089092 -2.296250 -1.194382 9.394160 8.398329 -10.858012 70.353043 -1.371124 16.185499 -3.502783 6.734372 10.976157 2.611550 4.773791 -3.368555 -7.620209 3.319764 -9.391604 -75.346320 -0.405630 21.128792 7.298451 -5.351163 17.548168 3.943564 1.495449 5.906598 -4.058177 1.599606 2.041505 1.705829 0.210215 -5.350807 2.376894 -0.000000 -1.258243 0.000000 1.624214 5.268422 4.045561 -2.813919 5.827629 -0.879765 -1.333543 -9.854991 -6.510425 -0.000000 -0.000000 -0.000000
0.433582 94.989910 139.667680 16.786982 -1.975376 0.150341 -1.121975 3.787116 -0.882449 -0.452207 -4.140923 -0.383654 -0.451177 1.679328 -0.429577 -0.370040 7.096407 -0.323349 0.589092 10.872275 0.698742 0.824483 -15.838907 1.084822 -2.289370 -1.182487 9.389804 8.402327 -10.867061 70.357169 -1.375504 16.186405 -3.502798 6.732347 10.977090 2.607732 4.774618 -3.364839 -7.624614 3.321716 -9.394679 -75.338502 -0.401832 21.130056 7.300965 -5.347575 17.545343 3.952880 1.501834 5.907940 -4.060162 1.587997 2.044696 1.706048 0.216210 -5.361581 2.376218 0.000000 -1.251743 0.000000 1.622049 5.270477 4.040398 -2.807926 5.825870 -0.881449 -1.337849 -9.859038 -6.499876 -0.000000 -0.000000 -0.000000
0.442507 94.989696 139.674152 16.786852 -1.973390 0.150929 -1.126719 3.784554 -0.885470 -0.454162 -4.142044 -0.384967 -0.453127 1.678205 -0.431089 -0.371614 7.095567 -0.324487 0.587493 10.872928 0.696008 0.822621 -15.837688 1.080263 -2.287624 -1.176310 9.385971 8.398142 -10.867213 70.363121 -1.381336 16.190925 -3.505133 6.730388 10.980180 2.608576 4.774440 -3.361491 -7.628200 3.332211 -9.397629 -75.335243 -0.396353 21.133265 7.305416 -5.345733 17.540571 3.957554 1.509467 5.914059 -4.063459 1.579515 2.043998 1.707681 0.216783 -5.370192 2.373268 -0.000000 -1.244251 0.000000 1.608480 5.276060 4.033922 -2.804292 5.822895 -0.883187 -1.327417 -9.861412 -6.492808 0.000000 -0.000000 0.000000
0.451337 94.989383 139.681785 16.787907 -1.968030 0.149795 -1.130405 3.781810 -0.888487 -0.455646 -4.143249 -0.386288 -0.454607 1.676999 -0.432560 -0.372834 7.094664 -0.325595 0.585611 10.872005 0.693801 0.819973 -15.839394 1.076847 -2.285099 -1.171808 9.384802 8.391821 -10.864427 70.365606 -1.383478 16.194697 -3.505035 6.729098 10.982010 2.610413 4.771931 -3.359216 -7.630520 3.342658 -9.401444 -75.333116 -0.389831 21.138245 7.308475 -5.342792 17.541193 3.958821 1.508314 5.919071 -4.069219 1.589239 2.039260 1.708590 0.206105 -5.372166 2.376998 0.000000 -1.252006 -0.000000 1.589871 5.276970 4.030739 -2.796439 5.824982 -0.879356 -1.316200 -9.866771 -6.496623 0.000000 0.000000 0.000000
0.457062 94.988145 139.691981 16.785746 -1.963157 0.147160 -1.131336 3.779340 -0.891307 -0.455914 -4.144337 -0.387543 -0.454873 1.675911 -0.433842 -0.373129 7.093848 -0.326563 0.585245 10.870433 0.691881 0.820117 -15.842313 1.073308 -2.282376 -1.170621 9.383628 8.382414 -10.854512 70.366794 -1.382308 16.199663 -3.502453 6.727467 10.982867 2.613623 4.771713 -3.360901 -7.631183 3.341367 -9.397793 -75.329055 -0.384456 21.135779 7.308362 -5.339552 17.548090 3.954752 1.511924 5.923094 -4.069804 1.591133 2.035093 1.707649 0.201170 -5.367034 2.384013 -0.000000 -1.266683 -0.000000 1.592258 5.278617 4.035328 -2.804884 5.826591 -0.878458 -1.305956 -9.871150 -6.502941 -0.000000 -0.000000 0.000000
0.461525 94.988155 139.700853 16.785219 -1.958757 0.144793 -1.134421 3.776785 -0.894866 -0.457102 -4.145457 -0.389109 -0.456057 1.674790 -0.435529 -0.374142 7.093009 -0.327835 0.587389 10.870332 0.691328 0.824498 -15.842508 1.071284 -2.282833 -1.169370 9.384592 8.380791 -10.844565 70.364139 -1.386492 16.209880 -3.500182 6.727379 10.980848 2.616629 4.775035 -3.360886 -7.632392 3.338919 -9.393647 -75.324552 -0.376129 21.134257 7.309876 -5.347468 17.556753 3.944110 1.516944 5.923679 -4.070274 1.587097 2.034347 1.705095 0.198232 -5.359194 2.392048 -0.000000 -1.287682 -0.000000 1.591281 5.279488 4.038949 -2.803721 5.831387 -0.875831 -1.304042 -9.877893 -6.510516 0.000000 0.000000 0.000000
0.468548 94.988844 139.709979 16.782904 -1.954000 0.142036 -1.135294 3.773531 -0.897848 -0.457337 -4.146893 -0.390439 -0.456290 1.673354 -0.436883 -0.374419 7.091932 -0.328857 0.589878 10.868705 0.689972 0.829897 -15.845536 1.067559 -2.280356 -1.166695 9.383775 8.381187 -10.833948 70.364124 -1.390848 16.214487 -3.501352 6.724948 10.977876 2.620503 4.775433 -3.361014 -7.632578 3.343009 -9.387745 -75.322136 -0.374593 21.139043 7.308273 -5.346513 17.563724 3.939553 1.518485 5.923140 -4.069020 1.589328 2.035013 1.701946 0.195738 -5.351320 2.398352 0.000000 -1.307542 -0.000000 1.588064 5.285063 4.038394 -2.798358 5.827782 -0.872723 -1.301266 -9.879791 -6.513621 0.000000 -0.000000 -0.000000
0.472542 94.989412 139.720049 16.780415 -1.950690 0.138027 -1.135276 3.770175 -0.900823 -0.457176 -4.148376 -0.391773 -0.456129 1.671871 -0.438201 -0.374396 7.090820 -0.329854 0.591919 10.868096 0.688816 0.834348 -15.846675 1.064421 -2.281059 -1.164483 9.383597 8.382668 -10.822595 70.364560 -1.399193 16.215041 -3.503114 6.725355 10.980531 2.624078 4.776061 -3.365372 -7.633087 3.345937 -9.374082 -75.322721 -0.376423 21.140863 7.309829 -5.347493 17.565387 3.936913 1.510358 5.921766 -4.061690 1.602541 2.040840 1.691178 0.190042 -5.346915 2.406213 0.000000 -1.325697 0.000000 1.584045 5.292607 4.039275 -2.798131 5.824889 -0.862995 -1.290450 -9.886078 -6.521817 0.000000 0.000000 -0.000000
0.476644 94.989640 139.730458 16.781153 -1.947788 0.134931 -1.136801 3.766578 -0.904209 -0.457681 -4.149963 -0.393279 -0.456631 1.670284 -0.439758 -0.374889 7.089631 -0.331029 0.595762 10.866550 0.687377 0.842395 -15.849558 1.059930 -2.281791 -1.161567 9.383302 8.379286 -10.813843 70.363134 -1.406594 16.213649 -3.508437 6.721945 10.982758 2.628948 4.772753 -3.362275 -7.630222 3.355575 -9.367989 -75.324280 -0.381318 21.142464 7.305010 -5.346260 17.562114 3.942323 1.505452 5.922753 -4.061206 1.607156 2.045910 1.688063 0.188316 -5.343374 2.414907 0.000000 -1.346106 -0.000000 1.575905 5.298512 4.042603 -2.805330 5.823037 -0.861998 -1.273280 -9.888671 -6.525966 0.000000 -0.000000 -0.000000
0.480421 94.989869 139.740442 16.787430 -1.943740 0.129828 -1.141430 3.761901 -0.907149 -0.459592 -4.152024 -0.394563 -0.458536 1.668221 -0.441236 -0.376429 7.088085 -0.332142 0.598851 10.864625 0.685738 0.849077 -15.853142 1.055392 -2.280345 -1.153621 9.383879 8.367053 -10.811390 70.361312 -1.411968 16.218752 -3.509833 6.721382 10.984629 2.626082 4.772324 -3.353187 -7.627758 3.356287 -9.362015 -75.324614 -0.389045 21.139423 7.303222 -5.348085 17.558730 3.940670 1.500988 5.924593 -4.055038 1.607036 2.047205 1.683452 0.184440 -5.338038 2.420750 0.000000 -1.368439 -0.000000 1.559092 5.300624 4.045532 -2.807123 5.826270 -0.859121 -1.258978 -9.894256 -6.534948 -0.000000 -0.000000 -0.000000
